<?xml version="1.0" encoding="UTF-8"?>
<svg width="400px" height="229px" viewBox="0 0 400 229" version="1.1" xmlns="http://www.w3.org/2000/svg" xmlns:xlink="http://www.w3.org/1999/xlink">
    <!-- Generator: Sketch 61.2 (89653) - https://sketch.com -->
    <title>blob-shape</title>
    <desc>Created with Sketch.</desc>
    <defs>
        <rect id="path-1" x="0" y="0" width="400" height="229"></rect>
        <linearGradient x1="5.51680852%" y1="53.4940873%" x2="85.1747892%" y2="38.6490959%" id="linearGradient-3">
            <stop stop-color="#FFB4BC" offset="0%"></stop>
            <stop stop-color="#7D3BFF" offset="100%"></stop>
        </linearGradient>
    </defs>
    <g id="Widget-Screens" stroke="none" stroke-width="1" fill="none" fill-rule="evenodd">
        <g id="Widget-/-Start-Screen">
            <g id="blob-shape">
                <mask id="mask-2" fill="white">
                    <use xlink:href="#path-1"></use>
                </mask>
                <use id="Mask" fill="#4D7CFE" xlink:href="#path-1"></use>
                <path d="M477.46439,-99.5789567 C511.46439,-65.0789567 531.96439,-11.7789567 527.26439,46.6210433 C522.56439,105.021043 492.66439,168.521043 449.36439,180.121043 C406.06439,191.721043 349.36439,151.521043 282.46439,122.921043 C215.46439,94.4210433 138.26439,77.5210433 127.36439,42.0210433 C116.56439,6.52104333 171.96439,-47.4789567 219.96439,-85.1789567 C267.86439,-122.778957 308.26439,-143.878957 352.16439,-146.678957 C396.06439,-149.478957 443.56439,-133.978957 477.46439,-99.5789567 Z" id="Path" fill="url(#linearGradient-3)" fill-rule="nonzero" opacity="0.751650856" mask="url(#mask-2)"></path>
                <path d="M82.4643903,185.421043 C116.46439,219.921043 136.96439,273.221043 132.26439,331.621043 C127.56439,390.021043 97.6643903,453.521043 54.3643903,465.121043 C11.0643903,476.721043 -45.6356097,436.521043 -112.53561,407.921043 C-179.53561,379.421043 -256.73561,362.521043 -267.63561,327.021043 C-278.43561,291.521043 -223.03561,237.521043 -175.03561,199.821043 C-127.13561,162.221043 -86.7356097,141.121043 -42.8356097,138.321043 C1.06439027,135.521043 48.5643903,151.021043 82.4643903,185.421043 Z" id="Path-Copy" fill="url(#linearGradient-3)" fill-rule="nonzero" opacity="0.751650856" mask="url(#mask-2)"></path>
            </g>
        </g>
    </g>
</svg>